<?xml version="1.0" standalone="no"?>
<!DOCTYPE svg PUBLIC "-//W3C//DTD SVG 20010904//EN"
 "http://www.w3.org/TR/2001/REC-SVG-20010904/DTD/svg10.dtd">
<svg version="1.0" xmlns="http://www.w3.org/2000/svg"
 width="700.000000pt" height="700.000000pt" viewBox="0 0 700.000000 700.000000"
 preserveAspectRatio="xMidYMid meet">
<metadata>
Created by potrace 1.14, written by Peter Selinger 2001-2017
</metadata>
<g transform="translate(0.000000,700.000000) scale(0.100000,-0.100000)"
fill="#000000" stroke="none">
<path d="M1 6717 l1 -282 22 70 c21 63 71 175 80 175 2 0 -12 -39 -30 -87 -18
-49 -41 -128 -51 -178 -17 -86 -18 -220 -18 -2945 0 -2121 3 -2869 12 -2910
10 -48 9 -52 -3 -35 -12 16 -14 -17 -14 -253 l0 -272 283 1 282 0 -86 28 c-47
15 -97 36 -110 46 -26 19 -26 19 64 -16 26 -11 84 -27 130 -36 76 -16 320 -17
3260 -20 l3177 -3 0 259 c0 239 -8 321 -24 238 -7 -38 -69 -172 -84 -181 -6
-3 0 15 13 42 12 26 32 76 43 112 49 159 47 37 47 3030 0 1543 -3 2841 -7
2885 -5 53 -4 75 2 65 6 -10 10 81 10 268 l0 282 -282 -1 -283 -1 70 -22 c39
-12 84 -30 100 -40 17 -9 21 -14 10 -10 -101 36 -195 56 -295 63 -63 5 -1511
9 -3217 10 l-3103 1 1 -283z m6976 -229 c-3 -8 -6 -5 -6 6 -1 11 2 17 5 13 3
-3 4 -12 1 -19z"/>
</g>
</svg>
