<?xml version="1.0" standalone="no"?>
<!DOCTYPE svg PUBLIC "-//W3C//DTD SVG 20010904//EN"
 "http://www.w3.org/TR/2001/REC-SVG-20010904/DTD/svg10.dtd">
<svg version="1.0" xmlns="http://www.w3.org/2000/svg"
 width="512.000000pt" height="512.000000pt" viewBox="0 0 512.000000 512.000000"
 preserveAspectRatio="xMidYMid meet">
<metadata>
Created by potrace 1.14, written by Peter Selinger 2001-2017
</metadata>
<g transform="translate(0.000000,512.000000) scale(0.100000,-0.100000)"
fill="#000000" stroke="none">
<path d="M440 5109 c-132 -19 -256 -93 -334 -199 -52 -71 -82 -144 -96 -238
-7 -45 -10 -756 -8 -2157 l3 -2090 22 -65 c55 -162 177 -282 337 -333 l71 -22
2125 0 2125 0 71 22 c163 52 285 174 337 338 l22 70 0 2125 0 2125 -22 71
c-51 160 -171 282 -333 337 l-65 22 -2100 1 c-1155 1 -2125 -2 -2155 -7z m320
-2439 l0 -1430 670 0 670 0 0 -110 0 -110 -795 0 -795 0 0 1540 0 1540 125 0
125 0 0 -1430z m2765 121 l830 -1304 3 1307 2 1306 125 0 125 0 0 -1540 0
-1540 -124 0 -124 0 -822 1293 c-452 710 -829 1299 -836 1307 -12 12 -14 -185
-14 -1293 l0 -1307 -120 0 -120 0 0 1540 0 1541 123 -3 122 -3 830 -1304z"/>
</g>
</svg>
